<svg width="24" height="24" viewBox="0 0 24 24" fill="none" xmlns="http://www.w3.org/2000/svg">
<path d="M4 12L6.66667 11L9.33333 12L12 11L14.6667 12L17.3333 11L20 12M19 17H5V18C5 19.1046 5.89543 20 7 20H17C18.1046 20 19 19.1046 19 18V17ZM5 9H19V8C19 5.79086 17.2091 4 15 4H9C6.79086 4 5 5.79086 5 8V9ZM18.5 14H5.5C4.67157 14 4 14.6716 4 15.5C4 16.3285 4.67157 17 5.5 17H18.5C19.3284 17 20 16.3285 20 15.5C20 14.6716 19.3284 14 18.5 14Z" stroke="#A4D394" stroke-width="2" stroke-linecap="round" stroke-linejoin="round"/>
</svg>
