<svg width="24" height="24" viewBox="0 0 24 24" fill="none" xmlns="http://www.w3.org/2000/svg">
<path d="M12.4427 9.88469L9.93591 7.50961C10.7504 6.69513 10.7415 5.44058 9.91545 4.6145C9.08937 3.78843 7.83483 3.77956 7.02034 4.59404C6.54124 5.07315 6.30509 5.79522 6.45428 6.42352C5.82598 6.27433 5.10391 6.51047 4.6248 6.98958C3.81032 7.80406 3.81919 9.05861 4.64527 9.88469C5.47134 10.7108 6.72589 10.7196 7.54037 9.90515L10.0427 12.1982M10.849 10.8182C12.679 8.9883 15.9731 9.59607 18.0415 11.6644C20.1099 13.7328 20.3606 16.2872 18.3393 18.3085C17.3071 19.3406 16.2106 19.9179 15.1091 19.9603C15.6969 18.6198 15.3345 17.3729 14.2964 16.6792C13.3784 16.0657 12.1158 15.899 10.7485 16.8582C9.64449 14.8004 9.44457 12.2227 10.849 10.8182Z" stroke="#A4D394" stroke-width="2" stroke-linecap="round" stroke-linejoin="round"/>
</svg>
