<svg width="24" height="24" viewBox="0 0 24 24" fill="none" xmlns="http://www.w3.org/2000/svg">
<path d="M11 11C12.4996 7.96705 14.1022 7.15279 15.5 7.49996C16.8978 7.84713 17.7863 8.49056 18.1776 10.1067C18.6409 12.2231 16.4347 15.084 12.3403 18.3148C11.1339 19.228 8.84585 20.3323 7.28919 21.0143C6.59213 21.3084 5.69482 21.068 5.19128 20.3835C4.68773 19.699 4.79998 18.7673 5.43754 18.1825C5.83131 17.7385 6.19073 17.4226 6.55015 17.1067C8.1847 15.6213 9.50034 14.033 11 11ZM11 11H14V13H17M17.1576 7.51513L18.4168 5.3795C18.8792 4.67907 18.5726 3.77256 17.8721 3.3101C17.1717 2.84764 16.2652 3.1543 15.8027 3.85473L15.7215 3.90165" stroke="#A4D394" stroke-width="2" stroke-linecap="round" stroke-linejoin="round"/>
</svg>
